<?xml version="1.0" standalone="no"?>
<!DOCTYPE svg PUBLIC "-//W3C//DTD SVG 20010904//EN"
 "http://www.w3.org/TR/2001/REC-SVG-20010904/DTD/svg10.dtd">
<svg version="1.0" xmlns="http://www.w3.org/2000/svg"
 width="388.000000pt" height="388.000000pt" viewBox="0 0 388.000000 388.000000"
 preserveAspectRatio="xMidYMid meet">
<metadata>
Created by potrace 1.14, written by Peter Selinger 2001-2017
</metadata>
<g transform="translate(0.000000,388.000000) scale(0.100000,-0.100000)"
fill="#000000" stroke="none">
<path d="M0 2173 l0 -1707 37 35 c37 35 139 100 253 162 30 16 80 44 111 63
31 19 62 34 68 34 27 0 139 44 176 69 48 32 122 67 161 77 16 4 67 27 114 52
174 92 275 142 289 142 8 0 29 11 47 25 25 19 37 40 54 97 11 40 25 81 31 90
20 38 10 112 -21 161 -17 26 -41 69 -54 95 -26 51 -86 235 -86 262 0 19 -30
50 -48 50 -38 0 -191 317 -161 335 5 4 9 1 9 -4 0 -6 5 -11 11 -11 8 0 9 22 4
74 -5 57 -3 81 8 103 14 27 14 30 -4 42 -11 6 -28 9 -38 6 -17 -5 -45 -57 -54
-100 -3 -11 -5 0 -6 25 -3 118 120 182 153 80 6 -19 21 -39 33 -45 45 -19 38
-76 -13 -100 -68 -32 -78 -83 -34 -170 11 -22 20 -45 20 -52 0 -7 5 -13 10
-13 6 0 10 5 10 10 0 6 11 10 24 10 14 0 27 4 30 8 8 14 -5 52 -19 52 -24 0
-24 28 1 55 18 19 24 37 24 71 0 74 44 183 91 228 58 54 69 88 69 205 0 55 4
111 10 125 11 31 35 35 27 6 -3 -13 1 -24 13 -30 10 -5 24 -26 30 -45 17 -52
40 -46 41 13 l1 47 10 -37 c6 -21 18 -40 28 -43 10 -3 30 -21 45 -40 29 -39
50 -46 42 -15 -8 31 19 24 32 -8 12 -28 14 -29 61 -21 27 4 57 12 67 17 10 5
38 8 62 6 24 -2 49 0 56 6 9 8 14 6 19 -5 10 -28 37 -16 53 25 15 37 33 54 33
30 0 -20 44 -29 62 -13 11 10 18 11 23 4 12 -20 35 -11 46 17 l11 27 10 -25 9
-25 20 25 c10 14 24 44 30 67 12 47 35 48 25 2 -3 -15 -1 -31 4 -34 6 -3 10 2
10 12 0 22 22 73 32 73 3 0 9 -8 11 -17 4 -17 5 -17 6 0 2 29 32 67 52 67 11
0 19 5 19 10 0 6 16 20 35 32 21 12 42 35 51 57 l15 36 18 -53 c10 -29 27 -59
37 -67 17 -12 22 -11 41 7 l22 20 11 -42 c6 -23 11 -93 11 -157 -1 -122 2
-131 57 -215 20 -30 35 -75 51 -148 11 -59 21 -116 21 -128 0 -14 8 -26 23
-31 31 -12 41 -2 20 21 -19 21 -31 135 -19 182 8 33 83 84 116 80 14 -2 35
-16 48 -32 32 -37 26 -70 -47 -282 -104 -303 -96 -287 -175 -343 -14 -10 -26
-26 -26 -36 0 -25 -57 -195 -81 -242 -27 -53 -34 -123 -14 -139 9 -7 21 -22
26 -32 17 -32 69 -182 69 -200 0 -22 16 -30 131 -68 52 -17 108 -37 124 -44
17 -8 68 -28 115 -46 95 -35 269 -121 315 -155 17 -12 86 -41 154 -64 80 -27
138 -53 165 -75 22 -18 81 -59 129 -91 48 -32 99 -72 112 -89 l25 -31 0 1673
0 1672 -1940 0 -1940 0 0 -1707z"/>
<path d="M1463 2536 c-18 -8 -33 -19 -33 -23 0 -4 -19 -18 -43 -31 -61 -32
-68 -47 -55 -128 17 -117 16 -114 43 -114 14 0 34 -6 45 -12 16 -10 24 -10 40
0 11 6 26 12 34 12 9 0 12 7 9 20 -3 11 0 20 6 20 6 0 11 -4 11 -10 0 -5 7
-10 15 -10 8 0 15 -4 15 -10 0 -5 -7 -10 -15 -10 -21 0 -19 -14 6 -36 33 -30
102 -22 147 17 49 43 53 51 42 90 -5 18 -6 37 -1 42 4 4 11 -5 14 -22 8 -39
20 -39 51 2 48 62 49 80 11 131 -29 36 -45 47 -91 61 -82 24 -211 29 -251 11z
m147 -113 c14 -7 35 -13 48 -13 12 0 22 -4 22 -9 0 -5 10 -11 23 -13 25 -3 25
-22 -1 -24 -9 -1 -21 -2 -27 -3 -5 -2 -55 -2 -110 -1 -73 1 -103 5 -111 15 -6
8 -14 11 -18 7 -5 -4 -6 4 -4 18 3 21 11 26 58 35 58 12 79 10 120 -12z m40
-147 c0 -16 -7 -26 -22 -29 -33 -9 -39 1 -16 28 27 31 38 32 38 1z"/>
<path d="M2130 2539 c-53 -12 -125 -53 -129 -74 -2 -14 2 -17 18 -12 12 3 24
0 27 -5 4 -7 10 -4 16 6 9 15 21 16 98 10 83 -6 247 4 207 14 -10 2 -28 14
-41 27 -15 15 -41 26 -72 30 -27 3 -58 8 -69 9 -11 2 -36 0 -55 -5z"/>
<path d="M2815 2440 c-4 -6 -1 -17 5 -25 6 -8 9 -19 5 -25 -4 -6 -3 -19 1 -28
5 -13 9 -7 14 23 8 41 4 65 -10 65 -5 0 -12 -5 -15 -10z"/>
<path d="M1050 2345 c0 -26 25 -44 40 -29 12 13 -7 54 -25 54 -9 0 -15 -9 -15
-25z"/>
<path d="M2115 2357 c-11 -7 -22 -13 -23 -14 -2 -1 1 -17 7 -36 19 -57 109
-125 127 -96 3 5 10 7 15 4 5 -3 6 0 4 7 -3 8 -19 19 -35 25 -20 8 -30 18 -30
32 0 18 3 20 19 11 11 -5 23 -15 26 -20 10 -17 51 -11 70 10 23 25 33 25 61
-1 16 -15 32 -19 60 -17 l39 3 -31 31 c-30 28 -51 37 -150 63 -54 14 -134 13
-159 -2z"/>
<path d="M1671 1991 c-12 -12 -21 -28 -21 -36 0 -8 -3 -15 -7 -15 -9 0 -33
-49 -33 -67 0 -16 32 -33 64 -33 14 0 28 -4 31 -10 14 -23 178 -1 207 28 17
17 36 15 65 -8 62 -48 127 6 73 60 -27 27 -77 26 -107 -2 -18 -17 -26 -19 -35
-10 -7 7 -19 12 -28 12 -8 0 -32 13 -53 29 l-37 28 -40 -19 c-21 -11 -42 -28
-45 -39 -4 -10 -11 -19 -16 -19 -12 0 -12 52 1 86 14 35 7 41 -19 15z"/>
<path d="M1750 1668 c-14 -6 -65 -11 -115 -12 l-90 -2 -12 -35 c-7 -18 -12
-42 -12 -51 -1 -11 -12 -20 -28 -24 -21 -6 -30 -2 -41 14 -20 30 -52 29 -52 0
1 -13 7 -34 15 -48 9 -16 12 -40 8 -66 -4 -34 -1 -46 16 -63 11 -11 21 -24 21
-28 0 -9 119 -123 128 -123 4 0 18 -12 31 -25 13 -14 27 -25 32 -25 5 0 9 -9
9 -20 0 -27 -14 -25 -30 5 -7 14 -32 36 -54 49 -23 13 -50 33 -60 45 -19 21
-56 29 -56 11 0 -5 11 -19 24 -32 50 -47 86 -100 76 -113 -6 -7 -3 -17 10 -28
21 -18 27 -47 10 -47 -5 0 -10 8 -11 18 0 14 -2 14 -8 -3 -5 -11 -4 -25 1 -32
6 -7 7 -13 3 -13 -4 0 -14 8 -21 18 -12 15 -13 16 -14 0 0 -20 64 -77 117
-104 21 -10 39 -22 41 -26 2 -4 18 -5 35 -1 30 5 31 4 13 -9 -21 -16 -31 -15
119 -19 88 -3 119 12 178 88 24 32 45 61 45 66 1 4 9 19 18 33 12 18 14 28 6
36 -8 8 -8 17 -1 29 7 13 6 26 -4 41 -8 13 -22 49 -33 82 -13 40 -26 62 -41
69 -13 6 -23 19 -23 29 0 16 5 19 28 14 39 -8 58 6 37 28 -9 9 -23 16 -31 16
-9 0 -14 10 -14 28 0 43 -29 63 -102 69 -58 5 -128 33 -128 52 0 24 232 28
320 5 65 -16 90 -14 90 9 0 22 -30 42 -94 66 -55 20 -61 21 -92 6 -27 -13 -41
-13 -86 -4 -29 6 -62 18 -73 25 -23 16 -70 17 -105 2z m-150 -668 c0 -5 -2
-10 -4 -10 -3 0 -8 5 -11 10 -3 6 -1 10 4 10 6 0 11 -4 11 -10z"/>
<path d="M2006 681 c-4 -5 -24 -12 -46 -16 -53 -9 -92 -57 -164 -204 l-56
-114 16 -49 c9 -27 22 -52 30 -55 20 -8 63 23 70 51 9 37 45 41 71 9 22 -27
22 -28 3 -60 -22 -38 -70 -188 -70 -221 0 -22 1 -22 190 -22 l190 0 -6 33
c-11 60 -36 132 -66 186 -27 50 -29 56 -18 100 6 25 19 56 29 69 l17 24 37
-37 c42 -42 67 -43 81 -3 8 22 5 33 -20 63 -16 21 -34 46 -40 57 -19 32 -65
77 -142 139 -72 58 -95 68 -106 50z"/>
</g>
</svg>
